<svg width="48" height="15" viewBox="0 0 48 15" fill="none" xmlns="http://www.w3.org/2000/svg">
<path fill-rule="evenodd" clip-rule="evenodd" d="M42.1585 3.92814C41.2654 3.12424 40.4615 2.85018 39.604 2.85018C38.7466 2.85018 37.6569 3.16078 37.6569 4.27527C37.6569 5.22533 38.4786 5.53593 39.8005 5.97442C41.6941 6.59562 44.1236 7.39951 44.1236 10.2497C44.1236 13.5384 41.5512 15 38.7823 15C36.7994 15 34.7808 14.2509 33.5661 12.9537L35.6383 10.7795C36.46 11.6931 37.6926 12.1681 38.8001 12.1681C39.8184 12.1681 40.7294 11.7661 40.7294 10.6151C40.7294 9.51888 39.6576 9.17174 37.8355 8.55055C36.067 7.9659 34.2806 7.07065 34.2806 4.49452C34.2627 1.31547 37.0495 0 39.6576 0C41.2296 0 42.9981 0.602923 44.2307 1.75396L42.1585 3.92814ZM9.21772 9.06212H5.69855L7.46706 4.16565L9.21772 9.06212ZM14.952 14.6163L9.25344 0.365408H5.89505L0 14.6163H3.71567L4.7339 11.8209H10.1288L11.2185 14.6163H14.952ZM26.9207 0.365408H23.2051L19.9717 10.6699L16.6848 0.365408H12.8977L18.1675 14.6163H21.5259L26.9207 0.365408ZM28.2605 14.6163H31.6546V0.365408H28.2605V14.6163ZM45.6063 1.57125C45.6063 2.24726 46.1422 2.7771 46.8031 2.7771C47.4641 2.7771 48 2.24726 48 1.57125C48 0.89525 47.4641 0.365408 46.8031 0.365408C46.1422 0.365408 45.6063 0.89525 45.6063 1.57125ZM45.7849 1.57125C45.7849 1.00487 46.2315 0.548112 46.7853 0.548112C47.339 0.548112 47.7856 1.00487 47.7856 1.57125C47.7856 2.13764 47.339 2.5944 46.7853 2.5944C46.2493 2.5944 45.7849 2.13764 45.7849 1.57125ZM46.3387 2.24726H46.5888V1.68088H46.7674L47.0711 2.24726H47.3569L46.9996 1.64434C47.1961 1.6078 47.3033 1.4799 47.3033 1.27893C47.3033 0.986602 47.0532 0.876979 46.8031 0.876979H46.3387V2.24726ZM46.5709 1.4799V1.09622H46.7853C46.9103 1.09622 47.0532 1.13276 47.0532 1.27893C47.0532 1.44336 46.8924 1.4799 46.7495 1.4799H46.5709Z" fill="#D4002A"/>
</svg>
