<svg width="92" height="20" viewBox="0 0 92 20" fill="none" xmlns="http://www.w3.org/2000/svg">
<path fill-rule="evenodd" clip-rule="evenodd" d="M11.7973 14.6829H21.3113V0.243902L11.7973 14.6829Z" fill="#F78B00"/>
<path fill-rule="evenodd" clip-rule="evenodd" d="M0 0V14.6829L21.3113 0H0Z" fill="#ED5505"/>
<path fill-rule="evenodd" clip-rule="evenodd" d="M90.4778 0.560975C91.3102 0.560975 92 1.2439 92 2.12195C92 2.97561 91.3102 3.65854 90.4778 3.65854C89.6453 3.65854 88.9555 2.97561 88.9555 2.12195C88.9793 1.2439 89.6453 0.560975 90.4778 0.560975ZM90.4778 3.41463C91.1913 3.41463 91.7622 2.82927 91.7622 2.09756C91.7622 1.36585 91.1913 0.780488 90.4778 0.780488C89.7642 0.780488 89.1934 1.36585 89.1934 2.09756C89.2172 2.82927 89.788 3.41463 90.4778 3.41463ZM90.4778 1.21951C90.787 1.21951 91.12 1.36585 91.12 1.73171C91.12 1.97561 90.9772 2.14634 90.7156 2.19512L91.1675 2.95122H90.787L90.3826 2.21951H90.1686V2.95122H89.8594V1.21951H90.4778ZM90.454 2C90.6205 2 90.8345 1.95122 90.8345 1.73171C90.8345 1.53659 90.6443 1.48781 90.5016 1.48781H90.2161V1.97561H90.454V2ZM86.7911 12.561C85.6019 12.561 85.031 11.9512 85.031 10.6829V5.7561H87.3382V3.63415H85.031V0.560975H82.6763V10.6585C82.6763 13.2195 84.1034 14.7561 86.4106 14.7561C86.8862 14.7561 87.3619 14.6829 87.3619 14.6829V12.5366C87.0765 12.561 86.91 12.561 86.7911 12.561ZM80.0124 4.92683C79.0372 3.87805 77.7053 3.39024 76.302 3.39024C73.3288 3.39024 71.0455 5.92683 71.0455 9.12195C71.0455 12.3415 73.2813 14.8049 76.3733 14.8049C77.9907 14.8049 79.6319 13.9512 80.6308 12.6341L78.7994 11.3171C78.2048 12.1707 77.182 12.6098 76.3733 12.6098C75.1127 12.6098 73.8283 11.6829 73.5191 10.0976H81.4157C81.3919 10.0488 82.1293 7.17073 80.0124 4.92683ZM73.5429 8.04878C73.638 7.39024 74.3992 5.56098 76.3257 5.56098C78.181 5.56098 79.0134 7.31707 79.0848 8.04878H73.5429ZM67.5015 3.60976V4.60976C66.6691 3.78049 65.5274 3.36585 64.3857 3.36585C61.365 3.36585 59.0103 5.82927 59.0103 9.04878C59.0103 12.2927 61.365 14.7561 64.3857 14.7561C65.4798 14.7561 66.5977 14.3415 67.4302 13.561C67.4302 13.561 67.9059 17.7317 64.3144 17.7317C62.7921 17.7317 61.7456 16.6098 61.2461 15.7805L59.3671 17.1463C60.2947 18.9268 62.2451 20 64.3144 20C65.6939 20 67.0496 19.5854 68.0248 18.7317C69.1665 17.7073 69.7849 16.2683 69.7849 14.3415V3.60976H67.5015ZM64.3857 12.5366C62.697 12.5366 61.365 11 61.365 9.02439C61.365 7.12195 62.7208 5.58537 64.3857 5.58537C66.0507 5.58537 67.4302 7.17073 67.4302 9.02439C67.4302 10.9756 66.0744 12.5366 64.3857 12.5366ZM52.303 14.7561C49.2823 14.7561 46.9276 12.2927 46.9276 9.07317C46.9276 5.82927 49.2823 3.36585 52.303 3.36585C53.3971 3.36585 54.515 3.78049 55.3475 4.56098V0H57.7022V14.5366H55.4188V13.5122C54.5863 14.3415 53.4447 14.7561 52.303 14.7561ZM52.303 5.60976C50.6143 5.60976 49.2823 7.14634 49.2823 9.09756C49.2823 11 50.6381 12.5366 52.303 12.5366C53.9679 12.5366 55.3475 10.9512 55.3475 9.09756C55.3713 7.17073 53.9917 5.60976 52.303 5.60976ZM45.7621 9.2439V3.60976H43.4074V9.2439C43.4074 11.2439 42.4085 12.5366 40.8387 12.5366C39.2689 12.5366 38.2699 11.2439 38.2699 9.2439V3.60976H35.9152V9.2439C35.9152 12.6098 38.1034 14.7561 40.8387 14.7561C43.5977 14.7561 45.7621 12.6098 45.7621 9.2439ZM24.879 14.6829V0H29.8501C31.7766 0 34.1313 1.04878 34.1313 3.80488C34.1313 5.46341 33.3702 6.5122 32.7042 6.90244C34.5357 7.60976 34.8925 9.39024 34.8925 10.439C34.8925 12.7805 33.0134 14.6829 29.9928 14.6829H24.879ZM29.7073 12.4878C30.3257 12.4878 30.8014 12.4146 31.182 12.2683C31.9431 11.9024 32.4188 11.2683 32.4188 10.3171C32.4188 9.41463 31.9193 8.73171 31.1582 8.39024C30.6112 8.14634 30.1593 8.14634 29.4933 8.14634H27.2575V12.4878H29.7073ZM29.3268 6.02439C29.7549 6.02439 30.4685 6 30.8728 5.80488C31.4912 5.46342 31.6815 4.90244 31.6815 4.07317C31.6815 3.17073 31.1582 2.65854 30.7063 2.43902C30.3733 2.26829 29.9452 2.19512 29.2554 2.19512H27.2575V6.02439H29.3268Z" fill="#00285F"/>
</svg>
