<svg width="14" height="11" viewBox="0 0 14 11" fill="none" xmlns="http://www.w3.org/2000/svg">
<path d="M13 3.69995L11.428 4.29995L10.924 1.89275C10.7782 1.19795 10.1656 0.699951 9.4552 0.699951H4.6072C3.9106 0.699951 3.3052 1.17995 3.1468 1.85855L2.5762 4.29995M2.578 4.29995L1 3.69995M10.75 6.69995H9.25M4.75 6.69995H3.25M1.75 10.3H3.1C3.5968 10.3 4 9.89675 4 9.39995V8.79995H10V9.39995C10 9.89675 10.4032 10.3 10.9 10.3H12.25C12.664 10.3 13 9.96395 13 9.54995V6.09995C13 5.10575 12.1942 4.29995 11.2 4.29995H2.8C1.8058 4.29995 1 5.10575 1 6.09995V9.54995C1 9.96395 1.336 10.3 1.75 10.3Z" stroke="#C5D2F7" stroke-width="1.3" stroke-linecap="round" stroke-linejoin="round"/>
</svg>
