<svg width="9" height="12" viewBox="0 0 9 12" fill="none" xmlns="http://www.w3.org/2000/svg">
<path d="M4.07331 0.128312C4.33103 -0.0427706 4.66842 -0.0427706 4.92615 0.128312L5.3432 0.402512C5.48378 0.493913 5.64779 0.538441 5.81414 0.529066L6.31319 0.4986C6.62246 0.479851 6.91299 0.64859 7.05123 0.925134L7.27615 1.37276C7.35113 1.52275 7.47296 1.64227 7.62057 1.71727L8.07277 1.9446C8.34924 2.08287 8.51793 2.37348 8.49919 2.68283L8.46873 3.18202C8.45936 3.34841 8.50387 3.51481 8.59525 3.65308L8.87172 4.07024C9.04276 4.32803 9.04276 4.66551 8.87172 4.92331L8.59525 5.34281C8.50387 5.48343 8.45936 5.64748 8.46873 5.81387L8.49919 6.31306C8.51793 6.62241 8.34924 6.91302 8.07277 7.05129L7.62526 7.27627C7.47531 7.35127 7.35582 7.47314 7.28084 7.62078L7.05357 8.0731C6.91534 8.34964 6.62481 8.51838 6.31553 8.49963L5.81648 8.46916C5.65013 8.45979 5.48378 8.50432 5.34554 8.59572L4.92849 8.87226C4.67076 9.04335 4.33338 9.04335 4.07565 8.87226L3.65626 8.59572C3.51568 8.50432 3.35167 8.45979 3.18532 8.46916L2.68626 8.49963C2.37699 8.51838 2.08646 8.34964 1.94823 8.0731L1.7233 7.62547C1.64832 7.47548 1.52649 7.35596 1.37888 7.28096L0.926688 7.05363C0.650216 6.91536 0.481522 6.62476 0.500266 6.3154L0.530725 5.81622C0.540097 5.64982 0.49558 5.48343 0.404204 5.34515L0.130076 4.92565C-0.0409617 4.66785 -0.0409617 4.33038 0.130076 4.07258L0.404204 3.65542C0.49558 3.51481 0.540097 3.35075 0.530725 3.18436L0.500266 2.68517C0.481522 2.37582 0.650216 2.08521 0.926688 1.94694L1.3742 1.72196C1.52415 1.64462 1.64598 1.52275 1.72096 1.37276L1.94588 0.925134C2.08412 0.64859 2.37465 0.479851 2.68392 0.4986L3.18297 0.529066C3.34933 0.538441 3.51568 0.493913 3.65391 0.402512L4.07331 0.128312ZM6.37411 4.49912C6.37411 4.00187 6.17663 3.52499 5.82511 3.17338C5.4736 2.82177 4.99684 2.62424 4.49973 2.62424C4.00261 2.62424 3.52585 2.82177 3.17434 3.17338C2.82282 3.52499 2.62535 4.00187 2.62535 4.49912C2.62535 4.99636 2.82282 5.47325 3.17434 5.82485C3.52585 6.17646 4.00261 6.37399 4.49973 6.37399C4.99684 6.37399 5.4736 6.17646 5.82511 5.82485C6.17663 5.47325 6.37411 4.99636 6.37411 4.49912ZM0.0316706 10.3534L1.04149 7.95123C1.04618 7.95357 1.04852 7.95592 1.05087 7.9606L1.27579 8.40823C1.54992 8.95194 2.11926 9.28239 2.72844 9.24724L3.22749 9.21677C3.23218 9.21677 3.23921 9.21677 3.24389 9.22146L3.66094 9.498C3.78043 9.57534 3.90695 9.63627 4.03816 9.67846L3.1572 11.7713C3.10331 11.9002 2.98382 11.9869 2.84559 11.9986C2.70735 12.0103 2.5738 11.9471 2.49883 11.8299L1.74439 10.6745L0.429977 10.869C0.296427 10.8878 0.162877 10.8339 0.0785301 10.7284C-0.00581705 10.6229 -0.0222179 10.4776 0.0293276 10.3534H0.0316706ZM5.84225 11.7689L4.96129 9.67846C5.0925 9.63627 5.21902 9.57768 5.33851 9.498L5.75556 9.22146C5.76025 9.21912 5.76493 9.21677 5.77196 9.21677L6.27102 9.24724C6.88019 9.28239 7.44953 8.95194 7.72366 8.40823L7.94859 7.9606C7.95093 7.95592 7.95327 7.95357 7.95796 7.95123L8.97013 10.3534C9.02167 10.4776 9.00293 10.6206 8.92092 10.7284C8.83892 10.8362 8.70303 10.8901 8.56948 10.869L7.25507 10.6745L6.50063 11.8275C6.42565 11.9447 6.2921 12.008 6.15387 11.9963C6.01563 11.9846 5.89614 11.8955 5.84225 11.7689Z" fill="#26B489"/>
</svg>
