<svg width="122" height="30" viewBox="0 0 122 30" fill="none" xmlns="http://www.w3.org/2000/svg">
<g clip-path="url(#clip0_327_4448)">
<path d="M41.0686 21.9014C41.4596 21.9014 41.8505 21.9014 42.1633 21.8231C42.4761 21.8231 42.7889 21.7448 43.1017 21.6664C43.4144 21.5881 43.649 21.5098 43.8836 21.3531C44.1182 21.2747 44.3528 21.1181 44.6656 20.9614V17.9846H42.4761C42.3979 17.9846 42.3979 17.9846 42.3197 17.9063C42.2415 17.9063 42.2415 17.828 42.2415 17.7496V17.2796H45.3693V21.1964C45.0565 21.3531 44.7438 21.5881 44.5092 21.7448C44.1964 21.9014 43.8836 21.9798 43.4926 22.1364C43.1017 22.2148 42.7889 22.2931 42.3197 22.3714C41.9287 22.4498 41.4596 22.4498 40.9904 22.4498C40.1303 22.4498 39.4265 22.2931 38.7228 22.0581C38.019 21.8231 37.4716 21.4314 36.9243 20.9614C36.4551 20.4914 36.0641 19.8647 35.7514 19.1597C35.5168 18.4547 35.3604 17.6713 35.3604 16.8096C35.3604 15.9479 35.5168 15.1646 35.7514 14.4595C35.9859 13.7545 36.3769 13.2062 36.9243 12.6578C37.3934 12.1878 38.019 11.7961 38.7228 11.5611C39.4265 11.3261 40.2085 11.1694 41.1468 11.1694C41.616 11.1694 42.0069 11.1694 42.3979 11.2478C42.7889 11.3261 43.1017 11.4044 43.4144 11.4828C43.7272 11.5611 44.04 11.7178 44.2746 11.8745C44.5874 12.0311 44.8219 12.1878 45.0565 12.4228L44.8219 12.7361C44.9001 13.0495 44.8219 13.0495 44.7437 13.0495C44.6656 13.0495 44.6656 13.0495 44.5874 13.0495C44.5092 13.0495 44.3528 12.9712 44.1964 12.8145C44.04 12.7361 43.8054 12.5795 43.5708 12.4228C43.3362 12.2661 42.9453 12.1878 42.5543 12.1095C42.1633 12.0311 41.6942 11.9528 41.1468 11.9528C40.3648 11.9528 39.7393 12.0311 39.1137 12.2661C38.4882 12.5011 38.019 12.8145 37.5498 13.2062C37.1589 13.5978 36.7679 14.1462 36.5333 14.7729C36.2987 15.3996 36.2205 16.1046 36.2205 16.8096C36.2205 17.593 36.2987 18.298 36.5333 18.9247C36.7679 19.5514 37.0807 20.0997 37.5498 20.4914C37.9408 20.8831 38.4882 21.2747 39.0355 21.5098C39.7393 21.8231 40.3648 21.9014 41.0686 21.9014ZM47.637 22.4498V14.6945H48.0279C48.1061 14.6945 48.1843 14.6945 48.2625 14.7729C48.3407 14.7729 48.3407 14.8512 48.3407 14.9295L48.4189 16.5746C48.6535 15.9479 49.0445 15.4779 49.4354 15.0862C49.9046 14.7729 50.3738 14.5379 51.0775 14.5379C51.3121 14.5379 51.5467 14.5379 51.7813 14.6162C52.0159 14.6945 52.1722 14.7729 52.4068 14.8512L52.1722 15.3996C52.1722 15.4779 52.094 15.5562 52.0159 15.5562C52.0159 15.5562 51.9377 15.5562 51.8595 15.5562C51.7813 15.5562 51.7031 15.4779 51.6249 15.4779C51.5467 15.4779 51.3903 15.3996 51.3121 15.3996C51.1557 15.3996 50.9993 15.3996 50.8429 15.3996C50.2174 15.3996 49.7482 15.5562 49.3572 15.9479C48.9663 16.3396 48.6535 16.8096 48.4189 17.5146V22.4498H47.637ZM56.8639 14.5379C57.3331 14.5379 57.7241 14.6162 58.115 14.7729C58.506 14.9295 58.8188 15.1646 59.1316 15.3996C59.4443 15.7129 59.6789 16.0262 59.8353 16.4963C59.9917 16.8879 60.0699 17.4363 60.0699 17.9846C60.0699 18.063 60.0699 18.1413 59.9917 18.2197C59.9917 18.298 59.9135 18.298 59.8353 18.298H53.9707V18.4547C53.9707 19.003 54.0489 19.5514 54.2053 20.0214C54.3617 20.4914 54.5181 20.8047 54.8309 21.1181C55.0654 21.4314 55.3782 21.6664 55.7692 21.8231C56.1602 21.9798 56.5511 22.0581 57.0203 22.0581C57.4113 22.0581 57.8023 21.9798 58.115 21.9014C58.4278 21.8231 58.6624 21.7448 58.897 21.5881C59.1316 21.5098 59.288 21.3531 59.3662 21.2747C59.5225 21.1964 59.6007 21.1181 59.6007 21.1181C59.6789 21.1181 59.7571 21.1181 59.7571 21.1964L59.9917 21.4314C59.8353 21.5881 59.6789 21.7448 59.4444 21.9014C59.2098 22.0581 58.9752 22.1364 58.7406 22.2148C58.506 22.2931 58.1932 22.3714 57.8805 22.4498C57.5677 22.5281 57.2549 22.5281 56.9421 22.5281C56.3948 22.5281 55.8474 22.4498 55.4564 22.2148C54.9873 22.0581 54.5963 21.7448 54.2835 21.4314C53.9707 21.1181 53.7361 20.6481 53.5016 20.0997C53.3452 19.5514 53.267 19.003 53.267 18.3763C53.267 17.828 53.3452 17.2796 53.5016 16.8096C53.6579 16.3396 53.8925 15.9479 54.2053 15.6346C54.5181 15.3212 54.9091 15.0079 55.3782 14.8512C55.7692 14.6945 56.3166 14.5379 56.8639 14.5379ZM56.8639 15.1646C56.473 15.1646 56.082 15.2429 55.7692 15.3212C55.4564 15.4779 55.1436 15.6346 54.9091 15.8696C54.6745 16.1046 54.4399 16.4179 54.2835 16.7313C54.1271 17.0446 54.0489 17.4363 53.9707 17.828H59.288C59.288 17.4363 59.2098 17.0446 59.1316 16.7313C58.9752 16.4179 58.8188 16.1046 58.6624 15.8696C58.4278 15.6346 58.1932 15.4779 57.8805 15.3212C57.5677 15.1646 57.2549 15.1646 56.8639 15.1646ZM64.918 14.5379C65.3871 14.5379 65.7781 14.6162 66.1691 14.7729C66.5601 14.9295 66.8728 15.1646 67.1856 15.3996C67.4984 15.7129 67.733 16.0262 67.8894 16.4963C68.0457 16.8879 68.124 17.4363 68.124 17.9846C68.124 18.063 68.124 18.1413 68.0458 18.2197C68.0458 18.298 67.9676 18.298 67.8894 18.298H62.0248V18.4547C62.0248 19.003 62.103 19.5514 62.2594 20.0214C62.4157 20.4914 62.5721 20.8047 62.8849 21.1181C63.1195 21.4314 63.4323 21.6664 63.8233 21.8231C64.2142 21.9798 64.6052 22.0581 65.0744 22.0581C65.4653 22.0581 65.8563 21.9798 66.1691 21.9014C66.4819 21.8231 66.7164 21.7448 66.951 21.5881C67.1856 21.5098 67.342 21.3531 67.4202 21.2747C67.5765 21.1964 67.6548 21.1181 67.6548 21.1181C67.733 21.1181 67.8111 21.1181 67.8111 21.1964L68.0458 21.4314C67.8894 21.5881 67.733 21.7448 67.4984 21.9014C67.2638 22.0581 67.0292 22.1364 66.7947 22.2148C66.5601 22.2931 66.2473 22.3714 65.9345 22.4498C65.6217 22.5281 65.309 22.5281 64.9962 22.5281C64.4488 22.5281 63.9014 22.4498 63.5105 22.2148C63.0413 22.0581 62.6503 21.7448 62.3376 21.4314C62.0248 21.1181 61.7902 20.6481 61.5556 20.0997C61.3992 19.5514 61.321 19.003 61.321 18.3763C61.321 17.828 61.3992 17.2796 61.5556 16.8096C61.712 16.3396 61.9466 15.9479 62.2594 15.6346C62.5721 15.3212 62.9631 15.0079 63.4323 14.8512C63.8233 14.6945 64.2924 14.5379 64.918 14.5379ZM64.918 15.1646C64.527 15.1646 64.136 15.2429 63.8233 15.3212C63.5105 15.4779 63.1977 15.6346 62.9631 15.8696C62.7285 16.1046 62.4939 16.4179 62.3376 16.7313C62.1812 17.0446 62.103 17.4363 62.0248 17.828H67.342C67.342 17.4363 67.2638 17.0446 67.1856 16.7313C67.0292 16.4179 66.8728 16.1046 66.7165 15.8696C66.4819 15.6346 66.2473 15.4779 65.9345 15.3212C65.6217 15.1646 65.309 15.1646 64.918 15.1646ZM69.8442 22.4498V14.6945H70.3134C70.4698 14.6945 70.548 14.7729 70.548 14.8512L70.6262 16.0262C71.0172 15.5562 71.4081 15.2429 71.9555 14.9295C72.4247 14.6945 72.972 14.5379 73.5976 14.5379C74.0668 14.5379 74.4577 14.6162 74.7705 14.7729C75.0833 14.9295 75.3961 15.0862 75.6306 15.3212C75.8652 15.5562 76.0216 15.8696 76.0998 16.2613C76.178 16.6529 76.2562 17.0446 76.2562 17.4363V22.4498H75.4743V17.5146C75.4743 16.8096 75.3179 16.1829 74.9269 15.7912C74.6141 15.3996 74.0668 15.1646 73.363 15.1646C72.8156 15.1646 72.3465 15.3212 71.8773 15.5562C71.4081 15.7912 71.0172 16.1829 70.6262 16.6529V22.4498H69.8442Z" fill="black"/>
<path d="M86.8906 11.0911V13.1278H82.0425V15.9479H86.1086V17.9846H82.0425V22.4498H79.3057V11.0911H86.8906ZM90.6439 10.7778V22.4498H88.1417V10.7778H90.6439ZM98.1506 22.4498C97.916 22.4498 97.7597 22.4498 97.6033 22.3714C97.4469 22.2931 97.3687 22.2148 97.2905 21.9798L97.1341 21.5098C96.8995 21.6664 96.7431 21.8231 96.5085 21.9798C96.274 22.1364 96.1176 22.2148 95.883 22.2931C95.6484 22.3714 95.4138 22.4498 95.1792 22.5281C94.9446 22.6065 94.7101 22.6065 94.3973 22.6065C94.0063 22.6065 93.6935 22.5281 93.3807 22.4498C93.068 22.3714 92.8334 22.2148 92.5988 22.0581C92.3642 21.9014 92.2078 21.6664 92.0514 21.3531C91.8951 21.0397 91.8951 20.7264 91.8951 20.4131C91.8951 20.0997 91.9732 19.8647 92.1296 19.5514C92.286 19.238 92.5206 19.003 92.9116 18.768C93.3026 18.533 93.7717 18.298 94.3973 18.1413C95.0228 17.9846 95.8048 17.9063 96.8213 17.9063V17.593C96.8213 17.1229 96.7431 16.8096 96.5085 16.5746C96.274 16.3396 96.0394 16.2613 95.6484 16.2613C95.3356 16.2613 95.101 16.2613 94.9446 16.3396C94.7883 16.4179 94.5537 16.4963 94.3973 16.5746C94.2409 16.6529 94.0845 16.7313 93.9281 16.8096C93.7717 16.8879 93.6153 16.8879 93.4589 16.8879C93.3026 16.8879 93.1462 16.8096 92.9898 16.7313C92.8334 16.6529 92.7552 16.5746 92.677 16.4179L92.2078 15.6346C92.7552 15.1646 93.3026 14.8512 93.9281 14.6945C94.5537 14.4595 95.1792 14.3812 95.9612 14.3812C96.5085 14.3812 96.8995 14.4595 97.3687 14.6162C97.7597 14.7729 98.1506 15.0079 98.3852 15.2429C98.698 15.5562 98.8544 15.8696 99.0108 16.2613C99.1672 16.6529 99.2453 17.0446 99.2453 17.5146V22.4498H98.1506ZM95.2574 20.9614C95.5702 20.9614 95.883 20.8831 96.1176 20.8047C96.3521 20.7264 96.5867 20.4914 96.8995 20.2564V19.1597C96.4303 19.1597 95.9612 19.1597 95.6484 19.238C95.3356 19.3164 95.101 19.3947 94.8664 19.473C94.7101 19.5514 94.5537 19.708 94.4755 19.7864C94.3973 19.943 94.3973 20.0214 94.3973 20.178C94.3973 20.4914 94.4755 20.6481 94.6319 20.7264C94.7101 20.8831 94.9446 20.9614 95.2574 20.9614ZM100.809 22.4498V14.3812H102.373C102.53 14.3812 102.686 14.3812 102.764 14.4595C102.842 14.5379 102.92 14.6162 102.999 14.7729L103.155 15.2429C103.311 15.0862 103.468 15.0079 103.624 14.8512C103.781 14.7729 103.937 14.6162 104.093 14.5379C104.25 14.4595 104.484 14.3812 104.641 14.3029C104.875 14.2245 105.032 14.2245 105.345 14.2245C105.892 14.2245 106.283 14.3812 106.596 14.6162C106.908 14.8512 107.221 15.2429 107.378 15.6346C107.534 15.3996 107.69 15.1646 107.925 15.0079C108.16 14.8512 108.316 14.6945 108.551 14.6162C108.785 14.5379 109.02 14.4595 109.332 14.3812C109.567 14.3029 109.88 14.3029 110.114 14.3029C110.584 14.3029 111.053 14.3812 111.444 14.5379C111.835 14.6945 112.147 14.8512 112.382 15.1646C112.617 15.3996 112.851 15.7129 112.929 16.1046C113.086 16.4963 113.164 16.8879 113.164 17.4363V22.4498H110.662V17.358C110.662 16.4963 110.271 16.1046 109.567 16.1046C109.254 16.1046 108.941 16.1829 108.707 16.4179C108.472 16.6529 108.394 16.9663 108.394 17.358V22.4498H105.892V17.358C105.892 16.8879 105.814 16.5746 105.579 16.4179C105.423 16.2613 105.11 16.1046 104.719 16.1046C104.484 16.1046 104.25 16.1829 104.093 16.2613C103.859 16.3396 103.702 16.4963 103.546 16.7313V22.4498H100.809ZM118.168 14.2245C118.716 14.2245 119.263 14.3029 119.732 14.4595C120.202 14.6162 120.592 14.8512 120.905 15.1646C121.218 15.4779 121.531 15.8696 121.687 16.3396C121.844 16.8096 122 17.2796 122 17.9063C122 18.063 122 18.2196 122 18.3763C122 18.4547 121.922 18.6113 121.922 18.6113C121.844 18.6897 121.844 18.6897 121.765 18.768C121.687 18.768 121.609 18.768 121.453 18.768H116.526C116.605 19.473 116.839 19.943 117.152 20.2564C117.465 20.5697 117.934 20.7264 118.481 20.7264C118.794 20.7264 119.029 20.7264 119.263 20.6481C119.498 20.5697 119.654 20.4914 119.811 20.4131C119.967 20.3347 120.123 20.2564 120.28 20.178C120.436 20.0997 120.592 20.0997 120.749 20.0997C120.983 20.0997 121.14 20.178 121.218 20.3347L121.922 21.1964C121.687 21.5098 121.374 21.7448 121.062 21.9014C120.749 22.0581 120.436 22.2148 120.123 22.2931C119.811 22.3714 119.498 22.4498 119.185 22.5281C118.872 22.5281 118.559 22.6065 118.247 22.6065C117.621 22.6065 117.074 22.5281 116.605 22.2931C116.057 22.1364 115.666 21.8231 115.275 21.5098C114.884 21.1181 114.572 20.7264 114.337 20.178C114.102 19.6297 114.024 19.003 114.024 18.298C114.024 17.7496 114.102 17.2796 114.337 16.7313C114.493 16.2613 114.806 15.7912 115.197 15.4779C115.588 15.0862 115.979 14.8512 116.526 14.6162C116.996 14.3812 117.543 14.2245 118.168 14.2245ZM118.247 15.8696C117.777 15.8696 117.387 16.0262 117.074 16.2613C116.839 16.4963 116.605 16.8879 116.526 17.358H119.654C119.654 17.2013 119.654 16.9663 119.576 16.8096C119.498 16.6529 119.42 16.4963 119.341 16.3396C119.263 16.1829 119.107 16.1046 118.872 16.0262C118.716 15.9479 118.481 15.8696 118.247 15.8696Z" fill="#B3CE52"/>
<path d="M20.6597 0.515766C20.8943 0.43743 20.8161 0.672438 20.6597 0.750774C11.6673 4.66756 23.7875 15.0079 22.6146 21.5881C22.0672 24.7999 18.7048 28.4033 10.338 29.5C10.338 27.1499 8.07035 25.9749 6.81924 25.0349C-10.6182 12.6578 11.1981 15.0079 8.61771 8.66269C6.81924 4.27588 12.9184 3.10085 20.6597 0.515766Z" fill="#B3CE52"/>
<path d="M24.9605 6.15596C25.0387 5.92095 25.1169 6.15596 25.1169 6.2343C24.2567 8.03602 20.9726 12.7361 20.738 12.4228C20.5034 12.0311 19.2523 10.1511 18.9395 8.89771C18.9395 8.81938 23.944 8.34936 24.9605 6.15596Z" fill="#B3CE52"/>
<path d="M35.5476 7.43565C35.4959 7.43565 35.4561 7.42155 35.4279 7.39334C35.3998 7.36044 35.3857 7.32049 35.3857 7.27349V2.6697C35.3857 2.618 35.3998 2.57805 35.4279 2.54984C35.4561 2.51694 35.4959 2.50049 35.5476 2.50049H37.1451C37.6283 2.50049 38.0177 2.57335 38.3133 2.71905C38.6089 2.86475 38.8247 3.08096 38.9608 3.36767C39.0968 3.64968 39.1672 3.99749 39.1719 4.4111C39.1766 4.62261 39.1789 4.80826 39.1789 4.96807C39.1789 5.12787 39.1766 5.31118 39.1719 5.51799C39.1625 5.9504 39.0898 6.30996 38.9537 6.59667C38.8224 6.87868 38.6112 7.09019 38.3203 7.23119C38.0341 7.36749 37.6541 7.43565 37.1803 7.43565H35.5476ZM36.0754 6.83638H37.1451C37.4688 6.83638 37.7268 6.79173 37.9192 6.70242C38.1116 6.61312 38.25 6.46977 38.3344 6.27236C38.4236 6.07495 38.4705 5.8141 38.4752 5.48979C38.4845 5.34878 38.4892 5.22658 38.4892 5.12317C38.4892 5.01507 38.4892 4.90932 38.4892 4.80591C38.4892 4.69781 38.4845 4.57561 38.4752 4.4393C38.4658 3.98339 38.3579 3.64733 38.1514 3.43112C37.945 3.21021 37.5978 3.09976 37.1099 3.09976H36.0754V6.83638Z" fill="#A9ABAE"/>
<path d="M41.6105 7.50609C41.1225 7.50609 40.7355 7.35803 40.4493 7.06192C40.1631 6.76112 40.0059 6.3522 39.9777 5.83519C39.9731 5.77408 39.9707 5.69653 39.9707 5.60253C39.9707 5.50383 39.9731 5.42392 39.9777 5.36282C39.9965 5.02911 40.0739 4.7377 40.21 4.48859C40.346 4.23479 40.5314 4.03973 40.7659 3.90343C41.0052 3.76712 41.2844 3.69897 41.6034 3.69897C41.96 3.69897 42.2579 3.77417 42.4972 3.92458C42.7411 4.07498 42.9265 4.28884 43.0531 4.56615C43.1798 4.84346 43.2432 5.16777 43.2432 5.53908V5.65893C43.2432 5.71063 43.2267 5.75058 43.1939 5.77878C43.1657 5.80699 43.1282 5.82109 43.0813 5.82109H40.6463C40.6463 5.82579 40.6463 5.83519 40.6463 5.84929C40.6463 5.86339 40.6463 5.87514 40.6463 5.88454C40.6557 6.07724 40.6979 6.2582 40.773 6.4274C40.8481 6.59191 40.956 6.72586 41.0967 6.82927C41.2422 6.93267 41.4111 6.98437 41.6034 6.98437C41.7723 6.98437 41.9131 6.95852 42.0257 6.90682C42.1383 6.85512 42.2298 6.79872 42.3001 6.73761C42.3705 6.67181 42.4174 6.62011 42.4409 6.58251C42.4831 6.52611 42.5159 6.49321 42.5394 6.48381C42.5629 6.46971 42.6004 6.46266 42.652 6.46266H42.9968C43.0391 6.46266 43.0743 6.47676 43.1024 6.50496C43.1352 6.52846 43.1493 6.56371 43.1446 6.61071C43.1399 6.68121 43.1024 6.76817 43.032 6.87157C42.9617 6.97027 42.8608 7.06897 42.7294 7.16768C42.6027 7.26638 42.4432 7.34863 42.2509 7.41444C42.0632 7.47554 41.8497 7.50609 41.6105 7.50609ZM40.6463 5.33462H42.5746V5.31347C42.5746 5.10196 42.5347 4.91396 42.455 4.74945C42.3799 4.58495 42.2696 4.45569 42.1242 4.36169C41.9787 4.26299 41.8052 4.21364 41.6034 4.21364C41.4017 4.21364 41.2281 4.26299 41.0826 4.36169C40.9419 4.45569 40.834 4.58495 40.7589 4.74945C40.6838 4.91396 40.6463 5.10196 40.6463 5.31347V5.33462Z" fill="#A9ABAE"/>
<path d="M45.2346 7.43565C45.1642 7.43565 45.1079 7.4192 45.0657 7.38629C45.0282 7.35339 44.9977 7.31109 44.9742 7.25939L43.6723 3.98809C43.6629 3.96459 43.6582 3.94109 43.6582 3.91759C43.6582 3.87529 43.6723 3.84003 43.7004 3.81183C43.7286 3.78363 43.7638 3.76953 43.806 3.76953H44.1438C44.1954 3.76953 44.2353 3.78363 44.2634 3.81183C44.2916 3.84003 44.3104 3.86589 44.3197 3.88939L45.3894 6.66717L46.4591 3.88939C46.4685 3.86589 46.485 3.84003 46.5084 3.81183C46.5366 3.78363 46.5764 3.76953 46.628 3.76953H46.9729C47.0104 3.76953 47.0433 3.78363 47.0714 3.81183C47.1043 3.84003 47.1207 3.87529 47.1207 3.91759C47.1207 3.94109 47.116 3.96459 47.1066 3.98809L45.7976 7.25939C45.7789 7.31109 45.7484 7.35339 45.7061 7.38629C45.6686 7.4192 45.6123 7.43565 45.5372 7.43565H45.2346Z" fill="#A9ABAE"/>
<path d="M49.1905 7.50609C48.7026 7.50609 48.3155 7.35803 48.0293 7.06192C47.7431 6.76112 47.5859 6.3522 47.5578 5.83519C47.5531 5.77408 47.5508 5.69653 47.5508 5.60253C47.5508 5.50383 47.5531 5.42392 47.5578 5.36282C47.5766 5.02911 47.654 4.7377 47.79 4.48859C47.9261 4.23479 48.1114 4.03973 48.346 3.90343C48.5853 3.76712 48.8644 3.69897 49.1835 3.69897C49.54 3.69897 49.838 3.77417 50.0772 3.92458C50.3212 4.07498 50.5065 4.28884 50.6332 4.56615C50.7599 4.84346 50.8232 5.16777 50.8232 5.53908V5.65893C50.8232 5.71063 50.8068 5.75058 50.7739 5.77878C50.7458 5.80699 50.7083 5.82109 50.6614 5.82109H48.2264C48.2264 5.82579 48.2264 5.83519 48.2264 5.84929C48.2264 5.86339 48.2264 5.87514 48.2264 5.88454C48.2357 6.07724 48.278 6.2582 48.353 6.4274C48.4281 6.59191 48.536 6.72586 48.6768 6.82927C48.8222 6.93267 48.9911 6.98437 49.1835 6.98437C49.3524 6.98437 49.4931 6.95852 49.6057 6.90682C49.7183 6.85512 49.8098 6.79872 49.8802 6.73761C49.9506 6.67181 49.9975 6.62011 50.0209 6.58251C50.0632 6.52611 50.096 6.49321 50.1195 6.48381C50.1429 6.46971 50.1804 6.46266 50.2321 6.46266H50.5769C50.6191 6.46266 50.6543 6.47676 50.6825 6.50496C50.7153 6.52846 50.7294 6.56371 50.7247 6.61071C50.72 6.68121 50.6825 6.76817 50.6121 6.87157C50.5417 6.97027 50.4408 7.06897 50.3095 7.16768C50.1828 7.26638 50.0233 7.34863 49.8309 7.41444C49.6433 7.47554 49.4298 7.50609 49.1905 7.50609ZM48.2264 5.33462H50.1546V5.31347C50.1546 5.10196 50.1148 4.91396 50.035 4.74945C49.9599 4.58495 49.8497 4.45569 49.7042 4.36169C49.5588 4.26299 49.3852 4.21364 49.1835 4.21364C48.9817 4.21364 48.8081 4.26299 48.6627 4.36169C48.5219 4.45569 48.414 4.58495 48.339 4.74945C48.2639 4.91396 48.2264 5.10196 48.2264 5.31347V5.33462Z" fill="#A9ABAE"/>
<path d="M51.8338 7.43559C51.7869 7.43559 51.747 7.42149 51.7142 7.39328C51.686 7.36038 51.6719 7.32043 51.6719 7.27343V2.59209C51.6719 2.54508 51.686 2.50748 51.7142 2.47928C51.747 2.44638 51.7869 2.42993 51.8338 2.42993H52.1646C52.2162 2.42993 52.256 2.44638 52.2842 2.47928C52.3123 2.50748 52.3264 2.54508 52.3264 2.59209V7.27343C52.3264 7.32043 52.3123 7.36038 52.2842 7.39328C52.256 7.42149 52.2162 7.43559 52.1646 7.43559H51.8338Z" fill="#A9ABAE"/>
<path d="M54.8757 7.50609C54.5191 7.50609 54.2212 7.43794 53.9819 7.30163C53.7426 7.16533 53.5596 6.97732 53.433 6.73761C53.3063 6.49321 53.2359 6.2159 53.2218 5.90569C53.2171 5.82579 53.2148 5.72473 53.2148 5.60253C53.2148 5.47563 53.2171 5.37457 53.2218 5.29937C53.2359 4.98446 53.3063 4.70715 53.433 4.46744C53.5643 4.22774 53.7497 4.03973 53.9889 3.90343C54.2282 3.76712 54.5238 3.69897 54.8757 3.69897C55.2275 3.69897 55.5231 3.76712 55.7624 3.90343C56.0017 4.03973 56.1846 4.22774 56.3113 4.46744C56.4427 4.70715 56.5154 4.98446 56.5295 5.29937C56.5342 5.37457 56.5365 5.47563 56.5365 5.60253C56.5365 5.72473 56.5342 5.82579 56.5295 5.90569C56.5154 6.2159 56.445 6.49321 56.3184 6.73761C56.1917 6.97732 56.0087 7.16533 55.7694 7.30163C55.5301 7.43794 55.2322 7.50609 54.8757 7.50609ZM54.8757 6.96322C55.1665 6.96322 55.3988 6.87157 55.5724 6.68826C55.746 6.50026 55.8398 6.22765 55.8539 5.87044C55.8586 5.79994 55.8609 5.71063 55.8609 5.60253C55.8609 5.49443 55.8586 5.40512 55.8539 5.33462C55.8398 4.97741 55.746 4.70715 55.5724 4.52385C55.3988 4.33584 55.1665 4.24184 54.8757 4.24184C54.5848 4.24184 54.3502 4.33584 54.1719 4.52385C53.9983 4.70715 53.9068 4.97741 53.8974 5.33462C53.8927 5.40512 53.8904 5.49443 53.8904 5.60253C53.8904 5.71063 53.8927 5.79994 53.8974 5.87044C53.9068 6.22765 53.9983 6.50026 54.1719 6.68826C54.3502 6.87157 54.5848 6.96322 54.8757 6.96322Z" fill="#A9ABAE"/>
<path d="M57.5866 8.77513C57.5397 8.77513 57.4998 8.75868 57.467 8.72578C57.4389 8.69758 57.4248 8.65997 57.4248 8.61297V3.93163C57.4248 3.88463 57.4389 3.84702 57.467 3.81882C57.4998 3.78592 57.5397 3.76947 57.5866 3.76947H57.9104C57.9573 3.76947 57.9948 3.78592 58.023 3.81882C58.0558 3.84702 58.0722 3.88463 58.0722 3.93163V4.24184C58.1848 4.08673 58.335 3.95748 58.5226 3.85407C58.7103 3.75067 58.9449 3.69897 59.2264 3.69897C59.4891 3.69897 59.712 3.74362 59.8949 3.83292C60.0826 3.92223 60.2351 4.04443 60.3524 4.19954C60.4744 4.35464 60.5659 4.5309 60.6268 4.7283C60.6878 4.92571 60.723 5.13721 60.7324 5.36282C60.7371 5.43802 60.7394 5.51793 60.7394 5.60253C60.7394 5.68713 60.7371 5.76703 60.7324 5.84224C60.723 6.06314 60.6878 6.27465 60.6268 6.47676C60.5659 6.67416 60.4744 6.85042 60.3524 7.00552C60.2351 7.15593 60.0826 7.27813 59.8949 7.37213C59.712 7.46144 59.4891 7.50609 59.2264 7.50609C58.9543 7.50609 58.7244 7.45674 58.5367 7.35803C58.3537 7.25463 58.2036 7.12773 58.0863 6.97732V8.61297C58.0863 8.65997 58.0722 8.69758 58.0441 8.72578C58.0159 8.75868 57.9784 8.77513 57.9315 8.77513H57.5866ZM59.0786 6.93502C59.3226 6.93502 59.5126 6.88332 59.6486 6.77992C59.7894 6.67181 59.8903 6.53316 59.9512 6.36395C60.0122 6.19005 60.0474 6.00439 60.0568 5.80699C60.0615 5.67068 60.0615 5.53438 60.0568 5.39807C60.0474 5.20067 60.0122 5.01736 59.9512 4.84816C59.8903 4.67425 59.7894 4.5356 59.6486 4.43219C59.5126 4.32409 59.3226 4.27004 59.0786 4.27004C58.8487 4.27004 58.661 4.32409 58.5156 4.43219C58.3748 4.5403 58.2693 4.67895 58.1989 4.84816C58.1332 5.01266 58.0957 5.18187 58.0863 5.35577C58.0816 5.43097 58.0793 5.52028 58.0793 5.62368C58.0793 5.72708 58.0816 5.81874 58.0863 5.89864C58.091 6.06314 58.1285 6.2253 58.1989 6.3851C58.274 6.54491 58.3842 6.67651 58.5297 6.77992C58.6751 6.88332 58.8581 6.93502 59.0786 6.93502Z" fill="#A9ABAE"/>
<path d="M63.0733 7.50609C62.5854 7.50609 62.1983 7.35803 61.9121 7.06192C61.6259 6.76112 61.4688 6.3522 61.4406 5.83519C61.4359 5.77408 61.4336 5.69653 61.4336 5.60253C61.4336 5.50383 61.4359 5.42392 61.4406 5.36282C61.4594 5.02911 61.5368 4.7377 61.6728 4.48859C61.8089 4.23479 61.9942 4.03973 62.2288 3.90343C62.4681 3.76712 62.7472 3.69897 63.0663 3.69897C63.4228 3.69897 63.7208 3.77417 63.96 3.92458C64.204 4.07498 64.3893 4.28884 64.516 4.56615C64.6427 4.84346 64.706 5.16777 64.706 5.53908V5.65893C64.706 5.71063 64.6896 5.75058 64.6568 5.77878C64.6286 5.80699 64.5911 5.82109 64.5442 5.82109H62.1092C62.1092 5.82579 62.1092 5.83519 62.1092 5.84929C62.1092 5.86339 62.1092 5.87514 62.1092 5.88454C62.1186 6.07724 62.1608 6.2582 62.2359 6.4274C62.3109 6.59191 62.4188 6.72586 62.5596 6.82927C62.705 6.93267 62.8739 6.98437 63.0663 6.98437C63.2352 6.98437 63.3759 6.95852 63.4885 6.90682C63.6011 6.85512 63.6926 6.79872 63.763 6.73761C63.8334 6.67181 63.8803 6.62011 63.9037 6.58251C63.946 6.52611 63.9788 6.49321 64.0023 6.48381C64.0257 6.46971 64.0633 6.46266 64.1149 6.46266H64.4597C64.5019 6.46266 64.5371 6.47676 64.5653 6.50496C64.5981 6.52846 64.6122 6.56371 64.6075 6.61071C64.6028 6.68121 64.5653 6.76817 64.4949 6.87157C64.4245 6.97027 64.3237 7.06897 64.1923 7.16768C64.0656 7.26638 63.9061 7.34863 63.7137 7.41444C63.5261 7.47554 63.3126 7.50609 63.0733 7.50609ZM62.1092 5.33462H64.0375V5.31347C64.0375 5.10196 63.9976 4.91396 63.9178 4.74945C63.8428 4.58495 63.7325 4.45569 63.5871 4.36169C63.4416 4.26299 63.268 4.21364 63.0663 4.21364C62.8645 4.21364 62.6909 4.26299 62.5455 4.36169C62.4048 4.45569 62.2968 4.58495 62.2218 4.74945C62.1467 4.91396 62.1092 5.10196 62.1092 5.31347V5.33462Z" fill="#A9ABAE"/>
<path d="M66.8849 7.50609C66.6269 7.50609 66.404 7.46144 66.2164 7.37213C66.0287 7.27813 65.8739 7.15358 65.7519 6.99847C65.6346 6.83867 65.5455 6.65771 65.4845 6.45561C65.4282 6.2535 65.3953 6.03964 65.3859 5.81404C65.3812 5.73883 65.3789 5.66833 65.3789 5.60253C65.3789 5.53673 65.3812 5.46623 65.3859 5.39102C65.3953 5.17012 65.4282 4.95861 65.4845 4.7565C65.5455 4.5544 65.6346 4.37344 65.7519 4.21364C65.8739 4.05383 66.0287 3.92928 66.2164 3.83997C66.404 3.74597 66.6269 3.69897 66.8849 3.69897C67.1617 3.69897 67.3916 3.74832 67.5746 3.84702C67.7576 3.94573 67.9077 4.06793 68.025 4.21364V2.59209C68.025 2.54508 68.0391 2.50748 68.0672 2.47928C68.1001 2.44638 68.14 2.42993 68.1869 2.42993H68.5247C68.5716 2.42993 68.6091 2.44638 68.6373 2.47928C68.6701 2.50748 68.6865 2.54508 68.6865 2.59209V7.27343C68.6865 7.32043 68.6701 7.36038 68.6373 7.39328C68.6091 7.42149 68.5716 7.43559 68.5247 7.43559H68.208C68.1564 7.43559 68.1165 7.42149 68.0883 7.39328C68.0602 7.36038 68.0461 7.32043 68.0461 7.27343V6.97732C67.9288 7.12773 67.7764 7.25463 67.5887 7.35803C67.401 7.45674 67.1664 7.50609 66.8849 7.50609ZM67.0327 6.93502C67.2673 6.93502 67.455 6.88097 67.5957 6.77287C67.7365 6.66476 67.842 6.52846 67.9124 6.36395C67.9828 6.19475 68.0203 6.02319 68.025 5.84929C68.0297 5.77408 68.032 5.68478 68.032 5.58138C68.032 5.47328 68.0297 5.38162 68.025 5.30642C68.0203 5.14191 67.9804 4.97976 67.9054 4.81995C67.835 4.66015 67.7271 4.52855 67.5817 4.42514C67.4409 4.32174 67.2579 4.27004 67.0327 4.27004C66.7934 4.27004 66.6034 4.32409 66.4627 4.43219C66.3219 4.5356 66.2211 4.67425 66.1601 4.84816C66.0991 5.01736 66.0639 5.20067 66.0545 5.39807C66.0498 5.53438 66.0498 5.67068 66.0545 5.80699C66.0639 6.00439 66.0991 6.19005 66.1601 6.36395C66.2211 6.53316 66.3219 6.67181 66.4627 6.77992C66.6034 6.88332 66.7934 6.93502 67.0327 6.93502Z" fill="#A9ABAE"/>
<path d="M73.2664 7.50609C72.9849 7.50609 72.7503 7.45674 72.5626 7.35803C72.3749 7.25463 72.2248 7.12773 72.1122 6.97732V7.27343C72.1122 7.32043 72.0958 7.36038 72.0629 7.39328C72.0348 7.42149 71.9973 7.43559 71.9503 7.43559H71.6266C71.5797 7.43559 71.5398 7.42149 71.507 7.39328C71.4788 7.36038 71.4648 7.32043 71.4648 7.27343V2.59209C71.4648 2.54508 71.4788 2.50748 71.507 2.47928C71.5398 2.44638 71.5797 2.42993 71.6266 2.42993H71.9715C72.0184 2.42993 72.0559 2.44638 72.0841 2.47928C72.1122 2.50748 72.1263 2.54508 72.1263 2.59209V4.21364C72.2436 4.06793 72.3937 3.94573 72.5767 3.84702C72.7644 3.74832 72.9942 3.69897 73.2664 3.69897C73.5291 3.69897 73.752 3.74597 73.9349 3.83997C74.1226 3.92928 74.2751 4.05383 74.3924 4.21364C74.5144 4.37344 74.6058 4.5544 74.6668 4.7565C74.7278 4.95861 74.763 5.17012 74.7724 5.39102C74.7771 5.46623 74.7794 5.53673 74.7794 5.60253C74.7794 5.66833 74.7771 5.73883 74.7724 5.81404C74.763 6.03964 74.7278 6.2535 74.6668 6.45561C74.6058 6.65771 74.5144 6.83867 74.3924 6.99847C74.2751 7.15358 74.1226 7.27813 73.9349 7.37213C73.752 7.46144 73.5291 7.50609 73.2664 7.50609ZM73.1186 6.93502C73.3625 6.93502 73.5526 6.88332 73.6886 6.77992C73.8294 6.67181 73.9302 6.53316 73.9912 6.36395C74.0522 6.19005 74.0874 6.00439 74.0968 5.80699C74.1015 5.67068 74.1015 5.53438 74.0968 5.39807C74.0874 5.20067 74.0522 5.01736 73.9912 4.84816C73.9302 4.67425 73.8294 4.5356 73.6886 4.43219C73.5526 4.32409 73.3625 4.27004 73.1186 4.27004C72.8981 4.27004 72.7151 4.32174 72.5697 4.42514C72.4242 4.52855 72.314 4.66015 72.2389 4.81995C72.1685 4.97976 72.131 5.14191 72.1263 5.30642C72.1216 5.38162 72.1193 5.47328 72.1193 5.58138C72.1193 5.68478 72.1216 5.77408 72.1263 5.84929C72.1357 6.02319 72.1732 6.19475 72.2389 6.36395C72.3093 6.52846 72.4148 6.66476 72.5556 6.77287C72.701 6.88097 72.8887 6.93502 73.1186 6.93502Z" fill="#A9ABAE"/>
<path d="M76.1461 8.77519C76.1085 8.77519 76.0757 8.76109 76.0476 8.73289C76.0194 8.70469 76.0053 8.67179 76.0053 8.63418C76.0053 8.61538 76.0077 8.59658 76.0124 8.57778C76.0171 8.55898 76.0264 8.53548 76.0405 8.50728L76.5824 7.21709L75.2382 4.03744C75.2148 3.98104 75.2031 3.94109 75.2031 3.91759C75.2031 3.87529 75.2171 3.84003 75.2453 3.81183C75.2734 3.78363 75.3086 3.76953 75.3508 3.76953H75.6957C75.7473 3.76953 75.7848 3.78128 75.8083 3.80478C75.8364 3.82828 75.8552 3.85649 75.8646 3.88939L76.9343 6.45567L78.0321 3.88939C78.0462 3.85649 78.065 3.82828 78.0884 3.80478C78.1166 3.78128 78.1565 3.76953 78.2081 3.76953H78.5388C78.5811 3.76953 78.6163 3.78363 78.6444 3.81183C78.6726 3.84003 78.6866 3.87294 78.6866 3.91054C78.6866 3.93404 78.6749 3.97634 78.6514 4.03744L76.6528 8.65533C76.6387 8.68823 76.6176 8.71644 76.5894 8.73994C76.566 8.76344 76.5285 8.77519 76.4768 8.77519H76.1461Z" fill="#A9ABAE"/>
</g>
<defs>
<clipPath id="clip0_327_4448">
<rect width="122" height="29" fill="white" transform="translate(0 0.5)"/>
</clipPath>
</defs>
</svg>
