<svg width="62" height="38" viewBox="0 0 62 38" fill="none" xmlns="http://www.w3.org/2000/svg">
<path d="M31.113 18.0643C32.2321 17.1538 33.2656 15.9264 33.9311 14.6084C33.0186 14.3167 32.0557 14.1104 31.113 14.1104V18.0643ZM30.4173 18.0342C29.2628 17.1589 28.2344 15.9314 27.5689 14.6135C28.4764 14.2915 29.4443 14.1154 30.4173 14.1154V18.0342ZM31.113 0.382314C32.2321 1.28779 33.2656 2.48504 33.9311 3.80805C33.0186 4.12497 32.0557 4.33625 31.113 4.33625V0.382314ZM30.4173 0.382314C29.2628 1.28779 28.2344 2.52025 27.5689 3.80805C28.4764 4.09982 29.4443 4.33625 30.4173 4.33625V0.382314ZM31.113 13.4112V9.54276H35.3225C35.3225 11.0972 34.9293 12.6164 34.2638 14.0249C33.2959 13.6778 32.1414 13.4363 31.113 13.4112ZM40.2932 9.54276H36.0535C35.993 11.243 35.625 12.7673 34.9343 14.2865C35.8417 14.699 36.6534 15.192 37.4449 15.8358C39.174 14.1406 40.1974 11.8869 40.2932 9.54276ZM36.9307 16.2785C36.2652 15.7201 35.4132 15.192 34.5965 14.875C33.8403 16.2483 32.9026 17.3903 31.7179 18.4165C33.6286 18.18 35.4132 17.4808 36.9307 16.2785ZM30.4173 13.4112V9.54276H26.1826C26.2078 11.0972 26.5707 12.6465 27.2412 14.0249C28.2344 13.6778 29.3283 13.4363 30.4173 13.4112ZM21.2068 9.54276H25.4516C25.5423 11.243 25.9053 12.7321 26.606 14.2865C25.6633 14.699 24.8466 15.192 24.0602 15.8358C22.3259 14.1406 21.3328 11.9423 21.2068 9.54276ZM24.5693 16.2785C25.2701 15.7503 26.0817 15.1668 26.9035 14.875C27.6597 16.2483 28.5974 17.3903 29.7821 18.4165C27.8714 18.18 26.0565 17.4808 24.5693 16.2785ZM31.113 5.00529V8.87371H35.3225C35.3225 7.3193 34.9293 5.83029 34.2638 4.39158C33.2707 4.74371 32.1717 4.97511 31.113 5.00529ZM40.2932 8.86868H36.0535C35.993 7.19857 35.5998 5.64919 34.9343 4.15515C35.8417 3.74265 36.6887 3.21446 37.4449 2.60074C39.2598 4.35637 40.1974 6.5597 40.2932 8.86868ZM36.9307 2.13794C36.235 2.7265 35.4132 3.24967 34.5965 3.57162C33.8403 2.16309 32.9026 1.05136 31.7179 0C33.6286 0.236431 35.4132 0.940695 36.9307 2.13794ZM30.4173 5.00529V8.87371H26.1826C26.2078 7.34948 26.5707 5.80011 27.2412 4.39158C28.2344 4.74371 29.3283 4.97511 30.4173 5.00529ZM21.2068 8.86868H25.4516C25.5423 7.16839 25.9053 5.67938 26.606 4.15515C25.6633 3.74265 24.8466 3.24464 24.0602 2.60074C22.2957 4.30606 21.3328 6.49934 21.2068 8.86868ZM24.5693 2.13794C25.2701 2.7265 26.0565 3.24967 26.9035 3.57162C27.6294 2.19328 28.6276 1.02621 29.7821 0C27.8714 0.236431 26.0817 0.940695 24.5693 2.13794ZM0.25 12.2944H19.2961C19.9969 15.69 22.4167 18.502 27.2362 20.4639C26.6867 22.0736 24.8113 23.5626 22.8704 23.5626H12.5508C10.9679 23.5626 9.73273 22.2698 9.21851 21.2486H19.7246C20.3649 21.1379 20.3951 20.6399 19.7549 20.5796H9.42521C8.0943 20.5796 6.87934 19.4628 6.18364 18.2656H18.2072C18.8121 18.175 18.8121 17.677 18.2072 17.5915H6.09289C4.88298 17.5915 3.7638 16.2182 3.30504 15.2825H16.604C17.2695 15.1919 17.2695 14.6084 16.604 14.5782H3.06306C2.00438 14.5782 0.97595 13.4665 0.25 12.2944ZM61.25 12.2944H42.1988C41.5031 15.69 39.0783 18.502 34.2638 20.4639C34.8083 22.0736 36.6836 23.5626 38.6245 23.5626H48.9542C50.5321 23.5626 51.7723 22.2698 52.2865 21.2486H41.7754C41.1402 21.1379 41.1049 20.6399 41.7451 20.5796H52.0748C53.4107 20.5796 54.6156 19.4628 55.3113 18.2656H43.2928C42.6828 18.175 42.6828 17.677 43.2928 17.5915H55.4121C56.6221 17.5915 57.7362 16.2182 58.1899 15.2825H44.8909C44.2255 15.1919 44.2255 14.6084 44.8909 14.5782H58.4319C59.4956 14.5782 60.5291 13.4665 61.25 12.2944ZM39.779 38L45.8891 25.937H49.8869L52.4025 38H48.6164L48.435 36.5663H44.4321L43.7969 38H39.779ZM45.4404 34.0511H48.0115L47.346 29.6293L45.4404 34.0511ZM31.8389 38L33.2303 28.9251H29.6863L30.2963 25.8766H41.1704L40.5604 28.9251H37.2029L35.8417 38H31.8389ZM15.4798 38L21.6 25.937H25.5978L28.1134 38H24.3576L24.1408 36.5663H20.1481L19.5129 38H15.4798ZM21.1513 34.0511H23.7224L23.0519 29.6293L21.1513 34.0511ZM8.94124 38L11.4216 25.937H15.4798L12.9995 38H8.94124Z" fill="#1E32FA"/>
</svg>
