<svg width="13" height="12" viewBox="0 0 13 12" fill="none" xmlns="http://www.w3.org/2000/svg">
<path d="M6.92969 12C8.52099 12 10.0471 11.3679 11.1723 10.2426C12.2975 9.11742 12.9297 7.5913 12.9297 6C12.9297 4.4087 12.2975 2.88258 11.1723 1.75736C10.0471 0.632141 8.52099 0 6.92969 0C5.33839 0 3.81227 0.632141 2.68705 1.75736C1.56183 2.88258 0.929688 4.4087 0.929688 6C0.929688 7.5913 1.56183 9.11742 2.68705 10.2426C3.81227 11.3679 5.33839 12 6.92969 12ZM5.99219 7.875H6.55469V6.375H5.99219C5.68047 6.375 5.42969 6.12422 5.42969 5.8125C5.42969 5.50078 5.68047 5.25 5.99219 5.25H7.11719C7.42891 5.25 7.67969 5.50078 7.67969 5.8125V7.875H7.86719C8.17891 7.875 8.42969 8.12578 8.42969 8.4375C8.42969 8.74922 8.17891 9 7.86719 9H5.99219C5.68047 9 5.42969 8.74922 5.42969 8.4375C5.42969 8.12578 5.68047 7.875 5.99219 7.875ZM6.92969 3C7.1286 3 7.31937 3.07902 7.46002 3.21967C7.60067 3.36032 7.67969 3.55109 7.67969 3.75C7.67969 3.94891 7.60067 4.13968 7.46002 4.28033C7.31937 4.42098 7.1286 4.5 6.92969 4.5C6.73078 4.5 6.54001 4.42098 6.39936 4.28033C6.25871 4.13968 6.17969 3.94891 6.17969 3.75C6.17969 3.55109 6.25871 3.36032 6.39936 3.21967C6.54001 3.07902 6.73078 3 6.92969 3Z" fill="#3179BD"/>
</svg>
