<svg width="220" height="32" viewBox="0 0 220 32" fill="none" xmlns="http://www.w3.org/2000/svg">
<path d="M24.8152 21.8685C24.2193 23.1454 23.0293 23.8269 21.6379 23.8269C20.2466 23.8269 19.0552 23.1454 18.4611 21.8685C18.1623 21.2294 18.064 20.3945 18.064 19.6847V13.1432H19.1129V19.6847C19.1129 20.2513 19.1841 21.0747 19.4668 21.5863C19.9364 22.4369 20.6725 22.8759 21.6379 22.8759C22.6034 22.8759 23.3408 22.4369 23.8078 21.5863C24.0922 21.0747 24.163 20.2513 24.163 19.6847V13.1432H25.2136V19.6847C25.2136 20.3945 25.1136 21.2294 24.8152 21.8685Z" fill="#3179BD"/>
<path d="M28.4559 14.2912L35.1582 21.3111V14.7176H36.2713V24.0095L29.5691 16.9901V23.6426H28.4559V14.2912Z" fill="#3179BD"/>
<path d="M40.1152 23.6426H39.0017V14.7176H40.1152V23.6426Z" fill="#3179BD"/>
<path d="M48.5998 12.387L46.6606 14.1492L46.1386 13.829L47.6186 11.8632L48.5998 12.387ZM50.5766 19.1801C50.5766 17.2151 49.1101 15.5699 47.014 15.5699C44.918 15.5699 43.4515 17.2151 43.4515 19.1801C43.4515 21.2154 45.0866 22.7903 47.014 22.7903C48.9445 22.7903 50.5766 21.2154 50.5766 19.1801ZM51.691 19.1801C51.691 21.8314 49.5937 23.8313 47.014 23.8313C44.434 23.8313 42.3384 21.8314 42.3384 19.1801C42.3384 16.6236 44.4571 14.528 47.014 14.528C49.571 14.528 51.691 16.6236 51.691 19.1801Z" fill="#3179BD"/>
<path d="M53.8408 14.2912L60.54 21.3111V14.7176H61.6531V24.0095L54.9539 16.9901V23.6426H53.8408V14.2912Z" fill="#3179BD"/>
<path d="M70.0421 22.6251H70.4335C72.706 22.6251 74.6714 21.7733 74.6714 19.1801C74.6714 16.5755 72.706 15.7346 70.4335 15.7346H70.0421V22.6251ZM68.929 14.7176H70.7756C73.5107 14.7176 75.7832 16.161 75.7832 19.1325C75.7832 22.1747 73.5583 23.643 70.741 23.643H68.929V14.7176Z" fill="#3179BD"/>
<path d="M78.0776 14.7176H82.8708V15.7346H79.1907V18.2334H82.7651V19.2513H79.1907V22.6256H82.8708V23.6426H78.0776V14.7176Z" fill="#3179BD"/>
<path d="M94.4763 19.6685L97.4849 23.643H96.146L92.531 18.8192C93.195 18.8192 94.1718 18.8629 94.8227 18.6611C95.8589 18.3453 96.578 17.5087 96.578 16.3999C96.578 15.5944 96.1311 14.7451 95.4125 14.3568C94.7485 13.9968 94.0862 13.9535 93.3383 13.9535H91.4817V23.643H90.4148V12.9885H93.1225C93.9285 12.9885 94.9953 13.0318 95.7432 13.3909C96.9375 13.968 97.6431 15.106 97.6431 16.4292C97.6431 18.2422 96.2617 19.554 94.4763 19.6685Z" fill="#3179BD"/>
<path d="M100.441 14.7176H105.235V15.7346H101.554V18.2334H105.128V19.2513H101.554V22.6256H105.235V23.6426H100.441V14.7176Z" fill="#3179BD"/>
<path d="M109.257 18.9075H109.611C110.748 18.9075 111.979 18.6947 111.979 17.2741C111.979 15.8766 110.654 15.7119 109.553 15.7119H109.257V18.9075ZM109.257 23.643H108.144V14.7176H109.422C112.17 14.7176 113.023 15.6638 113.023 17.2972C113.023 19.1801 111.588 19.9022 109.895 19.9022H109.257V23.643Z" fill="#3179BD"/>
<path d="M116.652 18.9424H117.008C118.145 18.9424 119.377 18.7292 119.377 17.3108C119.377 15.9133 118.049 15.7114 116.949 15.7114H116.652V18.9424ZM121.092 23.6426H119.742L117.114 19.8655H116.652V23.6426H115.541V14.7176H116.89C117.684 14.7176 118.536 14.729 119.246 15.1304C119.992 15.5699 120.418 16.4104 120.418 17.2627C120.418 18.5414 119.564 19.606 118.275 19.7598L121.092 23.6426Z" fill="#3179BD"/>
<path d="M123.505 14.7176H128.298V15.7346H124.618V18.2334H128.192V19.2513H124.618V22.6256H128.298V23.6426H123.505V14.7176Z" fill="#3179BD"/>
<path d="M135.174 16.4104C134.842 15.8539 134.416 15.5699 133.741 15.5699C133.03 15.5699 132.251 16.0553 132.251 16.8363C132.251 17.5349 132.938 17.9014 133.494 18.1137L134.132 18.3627C135.398 18.8599 136.347 19.5584 136.347 21.0516C136.347 22.6719 135.091 23.8313 133.494 23.8313C132.05 23.8313 130.925 22.7675 130.735 21.3355L131.859 21.0979C131.848 22.0804 132.629 22.7903 133.589 22.7903C134.546 22.7903 135.233 21.9847 135.233 21.0516C135.233 20.0905 134.462 19.6772 133.696 19.3583L133.079 19.0975C132.062 18.6598 131.137 18.0783 131.137 16.8363C131.137 15.393 132.416 14.528 133.767 14.528C134.761 14.528 135.575 15.0133 136.062 15.877L135.174 16.4104Z" fill="#3179BD"/>
<path d="M139.102 14.7176H143.895V15.7346H140.215V18.2334H143.79V19.2513H140.215V22.6256H143.895V23.6426H139.102V14.7176Z" fill="#3179BD"/>
<path d="M146.699 14.2912L153.4 21.3111V14.7176H154.512V24.0095L147.813 16.9901V23.6426H146.699V14.2912Z" fill="#3179BD"/>
<path d="M160.038 23.6426H158.925V15.735H156.805V14.7176H162.155V15.735H160.038V23.6426Z" fill="#3179BD"/>
<path d="M166.938 16.7769L165.352 20.3862H168.523L166.938 16.7769ZM164.89 21.405L163.871 23.643H162.677L166.938 14.3375L171.197 23.643H170.003L168.984 21.405H164.89Z" fill="#3179BD"/>
<path d="M179.623 16.4218C178.985 15.8539 178.108 15.5468 177.269 15.5468C175.267 15.5468 173.741 17.2151 173.741 19.1919C173.741 21.1455 175.255 22.8139 177.243 22.8139C178.12 22.8139 178.962 22.4814 179.623 21.8903V23.2035C178.937 23.6081 178.06 23.8313 177.281 23.8313C174.735 23.8313 172.628 21.8078 172.628 19.2264C172.628 16.5882 174.746 14.528 177.375 14.528C178.156 14.528 178.947 14.7176 179.623 15.1309V16.4218Z" fill="#3179BD"/>
<path d="M183.209 23.6426H182.095V14.7176H183.209V23.6426Z" fill="#3179BD"/>
<path d="M193.67 19.1801C193.67 17.2151 192.203 15.5699 190.108 15.5699C188.012 15.5699 186.545 17.2151 186.545 19.1801C186.545 21.2154 188.179 22.7903 190.108 22.7903C192.036 22.7903 193.67 21.2154 193.67 19.1801ZM194.783 19.1801C194.783 21.8314 192.687 23.8313 190.108 23.8313C187.528 23.8313 185.432 21.8314 185.432 19.1801C185.432 16.6236 187.551 14.528 190.108 14.528C192.664 14.528 194.783 16.6236 194.783 19.1801Z" fill="#3179BD"/>
<path d="M196.934 14.2912L203.636 21.3111V14.7176H204.746V24.0095L198.048 16.9901V23.6426H196.934V14.2912Z" fill="#3179BD"/>
<path d="M207.514 14.7176H212.31V15.7346H208.628V18.2334H212.202V19.2513H208.628V22.6256H212.31V23.6426H207.514V14.7176Z" fill="#3179BD"/>
<path d="M218.829 16.4104C218.497 15.8539 218.071 15.5699 217.397 15.5699C216.687 15.5699 215.904 16.0553 215.904 16.8363C215.904 17.5349 216.591 17.9014 217.148 18.1137L217.789 18.3627C219.056 18.8599 220 19.5584 220 21.0516C220 22.6719 218.746 23.8313 217.148 23.8313C215.704 23.8313 214.579 22.7675 214.388 21.3355L215.514 21.0979C215.501 22.0804 216.284 22.7903 217.243 22.7903C218.203 22.7903 218.889 21.9847 218.889 21.0516C218.889 20.0905 218.118 19.6772 217.349 19.3583L216.733 19.0975C215.716 18.6598 214.794 18.0783 214.794 16.8363C214.794 15.393 216.07 14.528 217.42 14.528C218.415 14.528 219.232 15.0133 219.716 15.877L218.829 16.4104Z" fill="#3179BD"/>
<path d="M3.78578 0.416229L3.77399 24.8688L6.0308 31.5837L5.72762 5.8398L3.78578 0.416229Z" fill="#878785"/>
<path d="M2.5508 2.30607L3.08858 6.1491L3.10649 23.7963L2.15503 20.9773L2.5508 2.30607Z" fill="#006EC7"/>
<path d="M2.55211 2.30607L0.801614 8.39934L0 26.7028L2.15503 20.9773L2.55211 2.30607Z" fill="#C9C9C4"/>
</svg>
