<svg width="71" height="24" viewBox="0 0 71 24" fill="none" xmlns="http://www.w3.org/2000/svg">
<path d="M66.7159 3.28128V2.80583H65.0918V0.0505918H64.6035V3.28128H66.7159ZM63.0173 2.08165H62.0123L62.273 1.34296C62.3561 1.10313 62.4728 0.733544 62.5101 0.595362C62.5469 0.733544 62.6773 1.10781 62.7566 1.33827L63.0173 2.08165ZM63.9613 3.28128L62.775 0.0505918H62.2589L61.0863 3.28128H61.5935L61.8631 2.51541H63.166L63.4404 3.28128H63.9613ZM61.0678 0.526034V0.0505918H58.6811V0.526034H59.6303V3.28128H60.1186V0.526034H61.0678ZM58.0388 3.28128V0.0505918H57.5647V1.71676C57.5647 1.89663 57.5694 2.35802 57.5694 2.4784C57.5227 2.3955 57.3829 2.1552 57.2993 2.02123L56.062 0.0505918H55.5638V3.28128H56.0389V1.60621C56.0389 1.42634 56.0337 0.978529 56.0337 0.858612C56.0852 0.941523 56.1966 1.13498 56.276 1.25489L57.5737 3.28127L58.0388 3.28128ZM54.871 3.28128V2.81051H53.1912V1.79077H54.1263V1.31954H53.1912V0.521354H54.8006V0.0505918H52.7024V3.28128H54.871ZM51.4557 1.02912C51.4557 1.37949 51.2281 1.54625 50.9022 1.54625H49.953V0.507766H50.9022C51.2324 0.507766 51.4557 0.692326 51.4557 1.02912ZM51.9492 1.01506C51.9492 0.350846 51.4699 0.0505895 50.9022 0.0505895H49.4737V3.28128H49.953V2.00296H50.6883L51.3348 3.28128H51.8978L51.2324 1.96127C51.6749 1.85072 51.9492 1.5322 51.9492 1.01506ZM46.3441 1.02912C46.3441 1.37949 46.1155 1.54625 45.7902 1.54625H44.841V0.507766H45.7902C46.1207 0.507766 46.3441 0.692326 46.3441 1.02912ZM46.8372 1.01506C46.8372 0.350846 46.3578 0.0505895 45.7902 0.0505895H44.3621V3.28128H44.841V2.00296H45.5763L46.2232 3.28128H46.7861L46.1207 1.96127C46.5628 1.85072 46.8372 1.5322 46.8372 1.01506ZM42.7753 2.08165H41.7709L42.0311 1.34296C42.1147 1.10313 42.2313 0.733544 42.2686 0.595362C42.3055 0.733544 42.4358 1.10781 42.5151 1.33827L42.7753 2.08165ZM43.7198 3.28128L42.5335 0.0505918H42.0174L40.8448 3.28128H41.352L41.6216 2.51541H42.9246L43.199 3.28128H43.7198ZM40.4306 2.71355L40.0259 2.44608C39.9566 2.57301 39.8526 2.67799 39.7259 2.74899C39.5992 2.81999 39.4549 2.85414 39.3095 2.84752C38.7419 2.84752 38.4344 2.39034 38.4344 1.66569C38.4344 0.94152 38.7419 0.484807 39.3095 0.484807C39.6448 0.484807 39.8167 0.608938 39.9839 0.872188L40.4165 0.604253C40.1936 0.212192 39.8399 0 39.3095 0C38.4675 0 37.9325 0.68764 37.9325 1.6657C37.9325 2.64423 38.4675 3.33187 39.3095 3.33187C39.5355 3.33991 39.7593 3.28656 39.9569 3.17759C40.1545 3.06861 40.3183 2.90815 40.4306 2.71355Z" fill="#0E1D3E"/>
<path d="M6.26295 11.4566H2.98224V16.6964H0V1.90605H6.51843C9.3302 1.90605 11.6522 3.44855 11.6522 6.59679C11.6522 10.02 9.35144 11.4566 6.26295 11.4566ZM6.41171 4.77979H2.98224V8.58289H6.45467C7.83883 8.58289 8.58451 7.94912 8.58451 6.6605C8.58451 5.37141 7.73259 4.77979 6.41171 4.77979Z" fill="#0E1D3E"/>
<path d="M17.9376 16.6838V15.9446C17.4049 16.4936 16.4675 16.9166 15.4238 16.9166C13.3365 16.9166 11.2487 15.6486 11.2487 12.965C11.2487 10.5143 13.251 9.28889 15.786 9.28889C16.8084 9.28889 17.4691 9.50015 17.9376 9.73202V9.18302C17.9376 8.4017 17.4049 7.76746 16.3399 7.76746C14.9978 7.76746 14.2946 7.95764 13.2722 8.50663L12.1431 6.47838C13.4427 5.73921 14.5294 5.35886 16.3399 5.35886C19.0455 5.35886 20.8773 6.75287 20.8773 9.24626V16.6838L17.9376 16.6838ZM17.9376 12.0357C17.4261 11.719 16.9364 11.5706 15.8927 11.5706C14.7848 11.5706 14.1884 12.0774 14.1884 12.965C14.1884 13.7473 14.6356 14.4443 15.8927 14.4443C16.8514 14.4443 17.6179 13.9581 17.9376 13.4302V12.0357Z" fill="#0E1D3E"/>
<path d="M52.7139 16.6965C50.9458 16.6965 49.2202 16.1897 48.0273 15.4079L49.0072 13.189C50.1885 13.8561 51.525 14.2057 52.8844 14.2031C54.0348 14.2031 54.3752 13.9286 54.3752 13.3581C54.3752 12.8508 53.971 12.5974 52.7351 12.2386C50.0509 11.4352 48.3257 10.7799 48.3257 8.43501C48.3257 6.13179 50.1789 5.13874 52.7989 5.13874C54.2443 5.16025 55.6627 5.52999 56.932 6.21611L55.9946 8.51932C54.8872 7.92818 53.6725 7.63167 52.7351 7.63167C51.5427 7.63167 51.223 7.86447 51.223 8.35022C51.223 8.81536 51.5635 9.00554 53.5446 9.63931C55.5474 10.2942 57.273 11.0127 57.273 13.2311C57.273 15.7878 55.2281 16.6965 52.7139 16.6965Z" fill="#0E1D3E"/>
<path d="M47.3019 11.858H40.613C40.7193 13.379 41.8484 13.9495 42.9133 13.9495C43.7232 13.9495 44.4047 13.6539 44.8307 13.1682L46.9185 14.9004C46.0236 16.0415 44.4047 16.6963 42.9133 16.6963C39.6969 16.6963 37.652 14.4357 37.652 10.9282C37.652 7.52609 39.8031 5.13903 42.6366 5.13903C45.6189 5.13903 47.3444 7.75842 47.3444 10.9282C47.3462 11.2387 47.332 11.549 47.3019 11.858ZM42.4874 7.67411C41.422 7.67411 40.7618 8.54068 40.6555 9.6602H44.4897C44.4047 8.66716 43.8083 7.67411 42.4874 7.67411Z" fill="#0E1D3E"/>
<path d="M26.6637 21.0212H23.7669L25.517 16.494L21.1714 5.40087H24.4096L26.2415 10.7469C26.5399 11.592 26.8379 12.6482 26.9659 13.1766C27.0934 12.6276 27.3914 11.613 27.6898 10.7469L29.5217 5.40087H32.6744L26.6637 21.0212Z" fill="#0E1D3E"/>
<path d="M36.238 0.0206658L33.5022 1.64096V16.6964H36.238V0.0206658Z" fill="#0E1D3E"/>
<path d="M62.6668 16.6965C60.8987 16.6965 59.1731 16.1897 57.9802 15.4079L58.9601 13.189C60.1413 13.8561 61.4776 14.2057 62.8368 14.2031C63.9872 14.2031 64.3281 13.9286 64.3281 13.3581C64.3281 12.8508 63.9234 12.5974 62.6875 12.2386C60.0038 11.4352 58.2782 10.7799 58.2782 8.43501C58.2782 6.13179 60.1317 5.13874 62.7518 5.13874C64.197 5.16031 65.6153 5.53004 66.8844 6.2161L65.9475 8.51932C64.8396 7.92818 63.625 7.63167 62.6875 7.63167C61.4951 7.63167 61.1754 7.86447 61.1754 8.35022C61.1754 8.81536 61.5164 9.00554 63.4975 9.63931C65.4998 10.2942 67.2249 11.0127 67.2249 13.2311C67.2249 15.7878 65.1801 16.6965 62.6668 16.6965Z" fill="#0E1D3E"/>
<path d="M34.6759 24C61.8575 17.3203 70.7108 23.0107 70.7108 23.0107L67.2194 17.9401C67.2194 17.9401 66.4393 17.8923 65.0485 17.8923C60.1003 17.8923 47.4252 18.4961 34.6759 24Z" fill="url(#paint0_linear_327_3884)"/>
<path d="M69.4 6.52882V6.09741H69.6461C69.7887 6.09741 69.9483 6.13816 69.9483 6.30398C69.9483 6.48713 69.7712 6.52882 69.6121 6.52882H69.4ZM69.1275 7.38134H69.4V6.74898H69.5984L69.9483 7.38135H70.2779L69.8708 6.719C69.9694 6.70508 70.0594 6.65575 70.1237 6.58037C70.1881 6.50499 70.2223 6.4088 70.2198 6.31007C70.2198 5.98499 69.9412 5.86601 69.6517 5.86601H69.1275V7.38134ZM68.5198 6.63C68.5221 6.40786 68.5907 6.19137 68.7169 6.00785C68.8431 5.82433 69.0213 5.68199 69.229 5.59879C69.4366 5.51559 69.6645 5.49525 69.8838 5.54034C70.1031 5.58543 70.304 5.69393 70.4612 5.85216C70.6185 6.01038 70.7249 6.21124 70.7672 6.42941C70.8094 6.64757 70.7856 6.87326 70.6987 7.07802C70.6118 7.28277 70.4658 7.45742 70.2789 7.57992C70.0921 7.70243 69.8729 7.76731 69.6489 7.76639C69.3473 7.76415 69.0589 7.64318 68.8471 7.43008C68.6354 7.21698 68.5176 6.9292 68.5198 6.63ZM68.3068 6.63C68.308 6.89412 68.388 7.15196 68.5369 7.37093C68.6858 7.58991 68.8968 7.7602 69.1432 7.86026C69.3896 7.96033 69.6604 7.98568 69.9214 7.93312C70.1823 7.88056 70.4217 7.75245 70.6092 7.56497C70.7968 7.37749 70.9241 7.13907 70.9751 6.87984C71.0261 6.62061 70.9984 6.35221 70.8956 6.10856C70.7929 5.86492 70.6195 5.65696 70.3976 5.51099C70.1757 5.36502 69.9152 5.28757 69.6489 5.28845C69.4715 5.28746 69.2957 5.32155 69.1317 5.38874C68.9677 5.45594 68.8189 5.55488 68.6939 5.6798C68.569 5.80471 68.4704 5.95308 68.4039 6.11623C68.3374 6.27938 68.3044 6.45405 68.3068 6.63Z" fill="#0E1D3E"/>
<defs>
<linearGradient id="paint0_linear_327_3884" x1="0" y1="12" x2="71" y2="12" gradientUnits="userSpaceOnUse">
<stop stop-color="#FFD800"/>
<stop offset="0.18373" stop-color="#FFD501"/>
<stop offset="0.3314" stop-color="#FECB03"/>
<stop offset="0.46659" stop-color="#FCBA07"/>
<stop offset="0.59428" stop-color="#FAA20D"/>
<stop offset="0.71675" stop-color="#F68315"/>
<stop offset="0.83526" stop-color="#F35D1E"/>
<stop offset="0.9485" stop-color="#EE3228"/>
<stop offset="1" stop-color="#EC1B2E"/>
</linearGradient>
</defs>
</svg>
