<svg width="8" height="8" viewBox="0 0 8 8" fill="none" xmlns="http://www.w3.org/2000/svg">
<path d="M4.95703 2.56152L5.07031 2.80273L5.33398 2.84277L7.5 3.17188C7.50021 3.17301 7.50042 3.17476 7.5 3.17676L7.49902 3.17871V3.17969L5.91992 4.79004L5.74316 4.9707L5.78418 5.2207L6.15625 7.48633L4.24121 6.43359L4 6.30078L3.75879 6.43359L1.84375 7.48633L2.21484 5.2207L2.25586 4.9707L2.0791 4.79004L0.5 3.17969V3.17871L0.500977 3.17773C0.500546 3.17578 0.500829 3.17389 0.500977 3.17188L2.66406 2.84277L2.92676 2.80273L3.04102 2.56152L3.99902 0.526367L4.95703 2.56152Z" fill="white" stroke="#F78B00"/>
</svg>
