<svg width="8" height="8" viewBox="0 0 8 8" fill="none" xmlns="http://www.w3.org/2000/svg">
<path d="M4.43523 0.281219C4.35493 0.109363 4.18526 0 3.99891 0C3.81257 0 3.6444 0.109363 3.56259 0.281219L2.58846 2.34817L0.412932 2.67939C0.231134 2.70751 0.0796346 2.83874 0.02358 3.01841C-0.0324746 3.19808 0.012975 3.39649 0.143264 3.52929L1.72188 5.14005L1.3492 7.41636C1.3189 7.60384 1.39465 7.79444 1.54463 7.90536C1.69461 8.01629 1.89308 8.03035 2.0567 7.9413L4.00043 6.87111L5.94416 7.9413C6.10778 8.03035 6.30624 8.01785 6.45622 7.90536C6.60621 7.79288 6.68196 7.60384 6.65166 7.41636L6.27746 5.14005L7.85607 3.52929C7.98636 3.39649 8.03333 3.19808 7.97576 3.01841C7.91819 2.83874 7.76821 2.70751 7.58641 2.67939L5.40937 2.34817L4.43523 0.281219Z" fill="#F78B00"/>
</svg>
