<svg width="14" height="13" viewBox="0 0 14 13" fill="none" xmlns="http://www.w3.org/2000/svg">
<path d="M7.38399 0.512732H7.38511L7.39253 0.513289L7.43822 0.516447L7.44621 0.517004C8.92497 0.625469 10.255 1.27032 11.2427 2.25746C12.3282 3.3436 13 4.84354 13 6.50024C13 8.15693 12.3282 9.65706 11.2427 10.7426C10.1571 11.8282 8.65659 12.5 6.99991 12.5C5.34322 12.5 3.84329 11.8282 2.75753 10.7426C1.67177 9.65706 1 8.15656 1 6.50024C1 4.84391 1.67177 3.3436 2.75735 2.25746L2.77796 2.23796L2.78112 2.23425L2.79635 2.21957L2.81418 2.20174L2.8478 2.16961L2.86043 2.15698L2.88104 2.13748L2.89367 2.12541L2.94215 2.08065L2.95218 2.07173L2.97483 2.05112L3.01272 2.01694L3.01792 2.01267L3.01959 2.01119L3.05284 1.98221L3.05655 1.9785C3.90031 1.2419 4.95227 0.737463 6.1125 0.56585L6.1177 0.564736L6.16079 0.558421H6.16246C6.56308 0.502145 6.97168 0.485801 7.38381 0.512546L7.38399 0.512732ZM7.82156 5.16894C7.64419 4.87512 7.04448 4.85469 6.6344 4.84094L6.4665 4.83463C6.43548 4.83314 6.40707 4.82404 6.38181 4.80937L5.50481 4.30976C5.48698 4.29917 5.47119 4.28654 5.458 4.27187C5.39634 4.20334 5.36161 4.09654 5.32372 3.97861C5.28955 3.87441 5.25166 3.75703 5.2095 3.71116C5.20746 3.70949 5.19836 3.72694 5.15583 3.7665C5.10902 3.80959 5.04587 3.82389 4.98849 3.81071L4.3052 3.68385C4.21252 3.66695 4.14881 3.58375 4.15364 3.49218C4.15847 3.26522 4.18782 3.19056 4.23833 3.06055C4.26471 2.99369 4.29777 2.90844 4.33826 2.75949C4.3546 2.69782 4.40047 2.65158 4.45675 2.63208C4.52417 2.6031 4.59307 2.56689 4.65473 2.5342C4.82115 2.44672 4.9532 2.37726 5.09806 2.41942C5.58708 2.56261 5.7899 2.4209 6.04156 2.24465C6.14946 2.16887 6.26591 2.08771 6.40911 2.0136C6.54339 1.9447 6.57125 1.88136 6.60189 1.8119C6.67823 1.63862 6.76515 1.44174 7.35483 1.17968L7.36319 1.13919C7.3747 1.08347 7.40999 1.03871 7.45698 1.01383C7.54799 0.963866 7.61485 0.933221 7.66648 0.911676C7.44862 0.88586 7.22594 0.872116 7.00046 0.872116C6.56512 0.872116 6.14129 0.92152 5.73436 1.01531L5.72972 1.01643L5.69963 1.02386L5.68645 1.02701C5.5869 1.05079 5.48846 1.07697 5.39114 1.10651C4.6252 1.33551 3.91275 1.72665 3.30469 2.25635L3.2915 2.26786C3.2642 2.29164 3.23727 2.31578 3.21034 2.33993C3.26141 2.37317 3.29094 2.42685 3.29466 2.48312C3.31731 2.68167 3.37099 2.75261 3.40795 2.8022C3.45995 2.87167 3.49896 2.9233 3.49951 3.01059L3.5205 3.03381C3.64791 3.17329 3.70957 3.24126 3.74263 3.33023L3.7469 3.34174C3.78015 3.43702 3.76696 3.50277 3.74319 3.62554L3.74263 3.62702C3.92798 3.77598 4.03793 3.82389 4.19803 3.89336C4.24428 3.91341 4.29442 3.93496 4.35553 3.96282L4.47866 3.91434C4.54441 3.88853 4.6161 3.90283 4.66606 3.94536L5.44574 4.53022C5.63519 4.66877 5.74848 4.72598 5.8211 4.76294C5.90802 4.80658 5.95742 4.83128 6.0085 4.90186C6.06273 4.97708 6.08279 5.06196 6.12792 5.25567L6.12959 5.26254C6.14798 5.34204 6.17175 5.44419 6.2076 5.58534C6.22134 5.63957 6.20908 5.69436 6.17974 5.73689L5.96819 6.06656C5.97971 6.15181 5.96875 6.2261 5.95817 6.29557C5.95352 6.32602 5.94925 6.35444 5.94814 6.37301C6.01648 6.39716 6.093 6.45826 6.18772 6.69785C6.29303 6.96363 6.28616 6.96047 6.28876 6.96159L6.29823 6.96679C6.33816 6.98573 6.38032 7.01099 6.43883 7.11147L6.55361 7.36053C6.77202 7.46324 7.40498 7.81965 7.19436 8.43924C7.25008 8.55513 7.24061 8.59191 7.21814 8.67511C7.21015 8.7052 7.19715 8.75405 7.21646 8.92418C7.22649 9.01054 7.24284 9.09263 7.25807 9.17157C7.29744 9.37327 7.33329 9.55695 7.28277 9.80174C7.28593 9.81809 7.2928 9.83499 7.29967 9.85059C7.33384 9.92952 7.36598 10.0053 7.33384 10.1453C7.41129 10.3017 7.47073 10.4613 7.52811 10.6154C7.61912 10.8591 7.70456 11.0872 7.84088 11.2252C7.89771 11.1041 7.90403 11.0277 7.9109 10.944L7.91146 10.9391C7.93207 10.6901 7.96142 10.389 8.69912 9.35655L8.88912 9.09337C8.88281 9.0397 8.88801 8.97172 8.95394 8.86549L8.95821 8.59228C8.95933 8.52597 8.99499 8.46858 9.04829 8.43645C9.15935 8.37015 9.26262 8.32372 9.3579 8.28119C9.53805 8.20058 9.68069 8.1365 9.73381 7.94855C9.75647 7.81055 9.76705 7.70264 9.77541 7.61052C9.80587 7.29367 9.82128 7.13821 10.1197 6.774L10.0397 6.52977L9.94609 6.47869C9.72452 6.35555 9.31016 6.12544 9.14004 6.13287C9.08729 6.13491 9.039 6.11504 9.00372 6.08123C8.87631 5.9581 8.54516 5.72111 8.27567 5.52795C8.04871 5.36525 7.86075 5.23097 7.82286 5.16894H7.82156ZM6.64591 4.47079C7.13865 4.48713 7.85889 4.51183 8.13897 4.97727C8.14269 4.98358 8.29591 5.08685 8.49074 5.22633C8.7398 5.40426 9.03975 5.61951 9.20727 5.76643C9.48642 5.8006 9.89595 6.02812 10.1244 6.15497C10.1875 6.19026 10.1792 6.20976 10.205 6.2118C10.2776 6.21812 10.3424 6.26659 10.366 6.33977L10.5035 6.75729C10.5224 6.81616 10.5114 6.88414 10.4682 6.93466C10.1792 7.27045 10.168 7.38746 10.1433 7.64581C10.1339 7.74536 10.1223 7.8633 10.098 8.01114C10.0969 8.02061 10.0954 8.02952 10.0928 8.039C9.99494 8.40061 9.78005 8.49756 9.50741 8.61921C9.44946 8.64558 9.38836 8.67289 9.32577 8.70557L9.32261 8.91303C9.32465 8.95408 9.31425 8.99624 9.28843 9.03208C9.26113 9.06997 9.25946 9.0605 9.26002 9.06366H9.25946C9.26838 9.10898 9.27636 9.14946 9.24795 9.21948C9.24219 9.23323 9.23532 9.24586 9.2264 9.25793L9.00056 9.57125C8.32247 10.5211 8.29721 10.7668 8.28087 10.9696L8.28031 10.975C8.26712 11.1366 8.25505 11.2798 8.06561 11.5805C8.01973 11.6657 7.91498 11.7027 7.82602 11.662C7.46162 11.4973 7.32753 11.1381 7.18062 10.7449C7.12119 10.5848 7.05897 10.418 6.97855 10.2653C6.94902 10.2189 6.93955 10.16 6.95905 10.1041C6.97911 10.0452 6.96908 10.0209 6.95849 9.99564C6.93639 9.94345 6.91373 9.88922 6.91113 9.80081C6.91002 9.78335 6.91113 9.76552 6.9154 9.74807C6.95645 9.56642 6.92655 9.41227 6.8933 9.2427C6.8764 9.15689 6.85913 9.06793 6.84743 8.96634C6.8205 8.72879 6.84427 8.63723 6.85894 8.58151L6.85207 8.57464C6.84835 8.57092 6.84315 8.56516 6.83517 8.55309C6.80155 8.50146 6.79356 8.43404 6.82087 8.37405C6.99155 7.99609 6.51293 7.74963 6.38032 7.68964L6.34671 7.67441C6.30362 7.65751 6.26721 7.62445 6.24623 7.57969L6.11306 7.28958C6.054 7.25949 5.98937 7.20173 5.84357 6.83473C5.79677 6.71624 5.82296 6.72255 5.8146 6.72051C5.76501 6.709 5.71765 6.69785 5.65822 6.62096C5.55347 6.48668 5.5713 6.36986 5.59024 6.24077C5.59823 6.18821 5.60658 6.1312 5.59507 6.08811C5.57817 6.03703 5.58355 5.97853 5.61513 5.92968L5.82779 5.59797C5.80364 5.49953 5.78414 5.41521 5.7678 5.34575L5.76612 5.33999C5.73288 5.1968 5.71821 5.13421 5.70762 5.11991C5.70651 5.11842 5.68923 5.11155 5.65394 5.09353C5.57018 5.05137 5.44017 4.98562 5.2264 4.82868L4.51785 4.29694L4.41682 4.33688C4.37039 4.35471 4.31727 4.35433 4.26935 4.33112C4.1919 4.29434 4.11724 4.26166 4.05038 4.23268C3.83772 4.14 3.69973 4.08001 3.42652 3.84618C3.37433 3.80569 3.34536 3.73827 3.35706 3.66825C3.36542 3.62089 3.37229 3.58505 3.3786 3.55403C3.38975 3.49776 3.39551 3.46655 3.39606 3.46024C3.3877 3.43869 3.34127 3.38762 3.246 3.28287L3.17078 3.20078C3.12824 3.15602 3.10874 3.0912 3.12453 3.02712C3.12713 3.01653 3.11766 3.03176 3.1119 3.02341C3.05618 2.94911 2.97706 2.84492 2.93769 2.60533C1.96764 3.61681 1.37164 4.98878 1.37164 6.50024C1.37164 8.01169 2.00181 9.46167 3.01997 10.4798C4.03868 11.498 5.44593 12.1282 6.99954 12.1282C8.55314 12.1282 9.96095 11.498 10.9797 10.4798C11.9978 9.46167 12.628 8.05441 12.628 6.50024C12.628 4.94606 11.9978 3.5388 10.9797 2.52008C10.2336 1.77401 9.27859 1.23651 8.20992 1.00231C8.04035 1.16705 7.99206 1.18507 7.88137 1.225C7.84144 1.23967 7.7898 1.25862 7.70716 1.30022L7.69917 1.33699C7.69081 1.39958 7.64977 1.45697 7.58699 1.48335C7.0521 1.70771 6.99266 1.84292 6.94047 1.96085C6.88197 2.09309 6.82941 2.21307 6.57775 2.34253C6.4535 2.40679 6.34968 2.47941 6.25291 2.54738C5.92009 2.7801 5.65227 2.96806 4.99406 2.7749C4.98774 2.77694 4.91605 2.81483 4.82672 2.86182C4.77936 2.88652 4.72884 2.91345 4.67201 2.9402C4.63728 3.05702 4.60719 3.13336 4.58304 3.19558C4.5615 3.25037 4.54571 3.29141 4.53568 3.34992L4.9779 3.43201C5.19056 3.27302 5.35177 3.3189 5.48178 3.45987C5.57854 3.56573 5.63017 3.72304 5.67549 3.8642C5.69555 3.9253 5.71338 3.98158 5.72545 4.00888L6.52835 4.46596L6.64573 4.4706L6.64591 4.47079Z" fill="#C8CED9" stroke="#C8CED9" stroke-width="0.8"/>
</svg>
